<?xml version="1.0" encoding="UTF-8"?>
<!DOCTYPE svg PUBLIC "-//W3C//DTD SVG 1.1//EN" "http://www.w3.org/Graphics/SVG/1.1/DTD/svg11.dtd">
<!-- Creator: CorelDRAW -->
<svg xmlns="http://www.w3.org/2000/svg" xml:space="preserve" width="126.916mm" height="74.188mm" version="1.1" style="shape-rendering:geometricPrecision; text-rendering:geometricPrecision; image-rendering:optimizeQuality; fill-rule:evenodd; clip-rule:evenodd"
viewBox="0 0 12692 7419"
 xmlns:xlink="http://www.w3.org/1999/xlink">
 <defs>
  <style type="text/css">
   <![CDATA[
    .fil7 {fill:black}
    .fil4 {fill:#00A5DA}
    .fil0 {fill:#999999}
    .fil5 {fill:#CCCCFF}
    .fil1 {fill:#F0CA80}
    .fil6 {fill:#FF2525}
    .fil2 {fill:#FFE400}
    .fil3 {fill:white}
   ]]>
  </style>
 </defs>
 <g id="__x0023_Layer_x0020_1">
  <metadata id="CorelCorpID_0Corel-Layer"/>
  <g id="tran0228.ai">
   <g>
    <polygon class="fil0" points="11811,5922 11111,6731 9510,6853 8643,7419 7469,6836 4313,6857 3651,7226 2322,6794 645,6564 172,5420 0,4074 272,3139 1081,2888 2045,2758 2318,1999 6669,1664 "/>
    <polygon class="fil1" points="8391,7239 8081,6870 7934,6442 8186,5843 8609,5596 9188,5629 9577,6212 9590,6782 9250,7314 "/>
    <polygon class="fil1" points="3630,7172 3139,6958 2988,6442 3139,5809 3651,5420 4275,5788 4632,6178 4615,6690 4292,7100 "/>
    <polygon class="fil2" points="1584,6002 1542,4623 1832,3990 1983,3311 2762,2993 3647,2913 3764,2129 4233,1341 5512,1341 6304,930 7733,1236 8513,2544 11552,2574 11749,2787 12155,3760 12541,4175 12394,4929 11837,5805 11363,6266 9615,6296 8953,5604 8379,5663 7922,6388 4673,6375 4170,5684 3496,5466 3039,5818 3039,6358 2041,6233 "/>
    <polygon class="fil3" points="3982,4170 8119,4170 8119,5331 3994,5331 "/>
    <polygon class="fil4" points="7599,3357 7306,2787 7377,2096 8027,1542 8525,2636 "/>
    <polygon class="fil4" points="5906,3789 5688,3529 5583,2808 5730,2590 6392,2653 6731,3408 6748,3760 "/>
    <polygon class="fil4" points="4112,3684 4070,2838 4263,2624 4954,2666 5214,3035 5290,3651 "/>
    <polygon class="fil5" points="12096,3621 11761,3634 11522,3328 11690,2808 12008,2745 12352,3144 12293,3529 "/>
    <polygon class="fil5" points="11116,5130 10818,5160 10600,4988 10529,4405 10877,4095 11132,4296 11304,4728 "/>
    <polygon class="fil5" points="10835,6048 10835,5650 11363,5512 12335,3852 12524,4082 12465,4803 11837,5956 11246,6099 "/>
    <polygon class="fil5" points="1601,5512 981,5805 910,6082 1245,6254 1744,6203 "/>
    <polygon class="fil5" points="5382,1576 5331,851 5629,331 6057,189 6375,666 5642,1496 "/>
    <polygon class="fil6" points="1572,4665 1056,4711 951,4929 1127,5130 1496,5172 "/>
    <polygon class="fil2" points="8643,6694 8467,6417 8613,6191 8823,6174 9083,6451 8882,6694 "/>
    <polygon class="fil2" points="3567,6467 3647,6191 3894,6069 4082,6254 4011,6572 3823,6635 "/>
    <polygon class="fil7" points="5994,0 5549,176 5264,599 5214,935 5298,1660 5566,1672 6337,884 6400,612 5788,1211 5503,1249 5470,771 5730,436 6078,423 6161,620 6296,327 6207,151 "/>
    <polygon class="fil7" points="5348,947 4476,1073 4082,1337 3797,1698 3613,2251 3592,2787 2502,2846 2087,3014 1832,3236 1727,3626 1677,4263 1333,4724 1324,5772 1610,6312 2226,6497 3030,6472 2993,6073 2289,6119 1739,5826 1651,5285 1739,4636 1999,4284 2993,3961 2850,3785 1915,3856 2062,3450 2347,3299 2921,3248 3642,3211 3839,2884 3823,2322 4036,1769 4430,1521 4896,1433 5470,1413 "/>
    <polygon class="fil7" points="1547,4535 1102,4611 842,4887 947,5147 1454,5273 1429,4988 1153,4996 1102,4787 1392,4757 "/>
    <polygon class="fil7" points="1341,5537 889,5713 830,6048 1010,6296 1308,6350 1760,6312 1677,6086 1283,6119 1102,6061 1094,5834 1413,5738 "/>
    <polygon class="fil7" points="4028,4162 4028,4757 4598,4753 4590,4166 "/>
    <polygon class="fil7" points="4602,4736 4602,5331 5172,5327 5164,4740 "/>
    <polygon class="fil7" points="5206,4137 5206,4736 5776,4728 5763,4137 "/>
    <polygon class="fil7" points="5797,4736 5797,5336 6367,5327 6358,4740 "/>
    <polygon class="fil7" points="6392,4137 6392,4736 6962,4728 6949,4141 "/>
    <polygon class="fil7" points="6983,4749 6983,5348 7553,5344 7545,4753 "/>
    <polygon class="fil7" points="7545,4133 7545,4736 8110,4724 8102,4137 "/>
    <polygon class="fil7" points="2825,6208 2984,5717 3194,5487 3521,5348 3944,5373 4292,5554 4564,5834 4728,6136 7980,6073 8245,5625 8584,5411 9100,5424 9502,5742 9670,6132 10910,6036 11124,6300 10567,6509 9468,6551 9297,6136 9062,5855 8802,5751 8391,5868 8157,6174 8056,6467 4497,6463 4347,6057 4036,5772 3563,5667 3273,5843 3139,6337 3177,6509 2850,6421 "/>
    <polygon class="fil7" points="3156,6446 3324,6803 3584,7016 3982,7058 4321,6866 4468,6614 4485,6287 4745,6375 4623,6870 4296,7159 3873,7289 3450,7205 3177,6991 2976,6715 2884,6400 "/>
    <polygon class="fil7" points="3802,6036 3563,6132 3462,6384 3588,6627 3831,6752 4049,6677 4145,6476 4145,6258 3936,6224 3973,6388 3869,6526 3718,6438 3693,6262 3856,6199 3973,6111 "/>
    <polygon class="fil7" points="8756,6107 8517,6199 8412,6451 8538,6702 8781,6828 9003,6744 9100,6551 9100,6325 8890,6296 8924,6463 8823,6593 8668,6509 8647,6337 8802,6270 8924,6187 "/>
    <polygon class="fil7" points="8039,6287 8106,6706 8307,6928 8584,7084 9016,7096 9297,6958 9427,6719 9464,6404 9749,6404 9619,6928 9447,7180 9141,7385 8802,7419 8391,7314 8123,7100 7968,6782 7884,6400 "/>
    <polygon class="fil7" points="7968,3852 10537,3831 10982,3994 11216,4246 11254,4657 11049,4351 10801,4363 10676,4464 10596,4682 10676,4954 10952,5093 11246,4845 11170,5164 10952,5290 10604,5164 10407,4958 10340,4564 10453,4275 10604,4120 8257,4082 "/>
    <polygon class="fil7" points="8068,1392 7389,1899 7121,2280 7067,2703 7213,3148 7557,3533 7867,3429 8794,2515 8555,2309 8073,2863 7763,3051 7482,2867 7440,2427 7553,2079 8140,1605 "/>
    <polygon class="fil7" points="8584,2385 11262,2460 11820,2578 12159,2791 12335,3077 12411,3437 12323,3663 12063,3789 12008,3579 12184,3454 12201,3173 12067,2972 11874,2884 11032,2758 8433,2833 "/>
    <polygon class="fil7" points="11740,2716 11476,2947 11451,3290 11564,3575 11740,3756 12080,3793 12067,3600 11866,3550 11681,3387 11698,3156 11904,2842 "/>
    <polygon class="fil7" points="11086,6337 10642,6107 10583,5805 10785,5591 11216,5466 11593,5093 12021,4326 12184,4376 11619,5528 11262,5688 10961,5767 10961,5897 11409,5948 11816,5679 12252,4971 12444,4384 12381,4045 12159,3869 11983,3718 12222,3630 12599,3944 12692,4359 12583,4808 12365,5298 12055,5709 11631,6212 "/>
    <polygon class="fil7" points="6249,851 7327,910 7876,1086 8169,1387 8500,1974 8685,2494 8400,2779 8089,2045 7670,1580 7134,1324 6698,1291 5918,1266 "/>
    <polygon class="fil7" points="4267,2540 4015,2703 3944,3114 3994,3789 4196,3630 4137,3232 4166,2863 4397,2745 4958,2762 5139,3135 5139,3450 5084,3835 5248,3856 5390,3445 5285,2968 5126,2645 4866,2523 "/>
    <polygon class="fil7" points="4133,3663 5193,3613 5227,3814 4996,3881 4539,3881 4271,3881 4011,3776 "/>
    <polygon class="fil7" points="5809,2553 5562,2636 5445,2871 5549,3450 5746,3844 6090,3927 6627,3848 6857,3684 6828,3437 6606,2854 6480,2984 6627,3416 6639,3630 6279,3735 5851,3668 5658,2909 5805,2779 "/>
    <polygon class="fil7" points="5772,2553 6367,2569 6551,2720 6627,3022 6534,3060 6358,2854 5713,2817 "/>
    <polygon class="fil7" points="11489,4837 11409,4422 11761,3911 12021,3986 11925,4254 "/>
   </g>
  </g>
 </g>
</svg>
